<?xml version="1.0" encoding="utf-8"?>
<!-- Generator: Adobe Illustrator 26.2.1, SVG Export Plug-In . SVG Version: 6.00 Build 0)  -->
<svg version="1.1" id="emblem" xmlns="http://www.w3.org/2000/svg" xmlns:xlink="http://www.w3.org/1999/xlink" x="0px" y="0px"
	 viewBox="0 0 4711.59 6578.11" style="enable-background:new 0 0 4711.59 6578.11;" xml:space="preserve">
<style type="text/css">
	.st0{fill:#3A53A4;}
	.st1{fill:#FFFFFF;}
</style>
<g>
	<path class="st0" d="M2355.8,6578.11C688.84,5630.31-24.61,3466.14,0.65,940.18c0.65-66,49.79-121.5,115.22-130.27
		C875.54,708.1,1589.01,413.31,2276.08,21.15c49.42-28.2,110.02-28.2,159.43,0c687.07,392.16,1400.54,686.94,2160.21,788.76
		c65.43,8.77,114.57,64.27,115.22,130.27C4736.23,3466.14,4022.75,5630.31,2355.8,6578.11z"/>
	<path class="st1" d="M3237.19,512.3c0,0-1.53,61.08-26.72,135.91c0,0,92.77,188.78,125.41,342.83c0,0,33.5,34.93,37.8,74.44
		c2.45,22.52-18.9,32.45-18.9,32.45s-18.69,54.59-85.85,52.87c-2.48-0.06-4.68-1.63-5.47-3.98
		c-6.32-18.71-41.91-103.67-109.1-145.47c0,0-131.41-1.41-141.52-103.85c-0.15-1.5-0.9-2.89-2.11-3.79l-1.98-1.48
		c-1.69-1.26-4.04-1.13-5.57,0.32c-12.77,12.16-67.4,67.36-77.5,131.32c-18.71,117.2,125.6,294.73,158.82,354.28
		c32.62,58.49,60.82,144.6,21.67,213.85c-1.07,1.9-0.05,4.29,2.08,4.74c15.48,3.27,72.01,13.02,154.34,1.88
		c97.35-13.17,247.96-64.71,286.9-9.74c38.94,54.97,46.96,127.13,51.54,234.79s-6.87,172.94-13.17,190.69
		c-5.53,15.59-14.45,31.03-16.54,34.56c-0.3,0.51-0.46,1.07-0.49,1.66l-0.25,5.82c-0.06,1.34-0.51,2.63-1.31,3.71l-55.27,75.21
		c-2.34,3.19-6.92,3.58-9.83,0.89c-8.15-7.56-22.2-27.06-26.45-73.56c-2.67-31.69-5.73-46.58,4.2-53.45c0,0,22.52-6.11,32.45-18.71
		c15.27-19.66,11.26-36.65,15.84-50.39c4.58-13.74,3.25-27.87,0.95-43.9c0,0,6.3-101.74-8.02-159.58
		c-14.32-57.84-71.58-30.92-71.58-30.92s10.88,37.22,7.44,72.73c-3.44,35.5-32.07,170.65-96.21,279.45
		c-33.57,53.41-101.92,92.35-116.79,100.4c-1.88,1.02-4.23,0.48-5.43-1.29c-2.58-3.78-6.36-12.14-7.58-29.44
		c-1.91-27.11,0.95-68.34,5.92-79.22c4.96-10.88,26.34-28.25,32.45-28.44c6.11-0.19,24.81-0.19,24.81-0.19l-0.67-18.95
		c0,0,32.07-41.95,47.24-80.31s42.09-72.15,46.67-105.37c4.58-33.21-8.3-55.83-26.91-62.71c-36.75-10.4-73.78-1.24-172.66,46.1
		c-98.88,47.34-184.78,93.92-232.88,75.59c0,0-125.22,104.99-297.78,148.51c-172.56,43.52-324.5,39.7-375.66,36.65
		c-51.16-3.05-79.41,61.85-109.95,117.58s-108.42,182.87-241.28,289.38c-61.85,57.27-16.03,111.09,12.6,159.2
		c28.63,48.1,87.62,127.13,129.99,158.05c41.2,30.06,112.7,75.28,136.64,121.97c1.07,2.08-0.16,4.59-2.46,5.03
		c-10.65,2.04-43.03,6.21-122.16,3.56c0,0-11.74,2-25.48-15.75c-13.74-17.75-31.78-43.81-53.54-36.65c0,0-4.87,1.43-14.32-9.16
		c-9.45-10.59-7.73-22.33-16.89-41.23c-9.16-18.9-84.08-153.38-145.93-223.62c-61.85-70.25-67.95-78.64-87.04-111.48
		c0,0,105.92-56.67,155.76-119.11c60.56-75.86,91.37-156.42,99.13-178.49c0.27-0.77-0.79-1.27-1.21-0.58
		c-12.56,20.38-61.66,96.68-140.67,178.3c-114.58,118.37-293.2,171.03-388.64,215.32c-95.44,44.29-17.56,226.77-12.22,243.57
		c5.34,16.8,28.25,75.59,87.04,126.75c49.01,42.64,74.14,91.12,81.15,106.08c1.17,2.49-0.03,5.46-2.59,6.46l-10.39,4.07
		c-1.66,0.65-3.41,0.96-5.19,0.92c-17.81-0.39-118.32-2.85-125.97-9.11c-8.4-6.87-7.25-16.99-9.16-24.43
		c-1.68-6.55-13.55-22.26-17.81-27.11c-0.76-0.86-0.95-2.08-0.5-3.13l1.55-3.58c0.06-0.14-0.05-0.29-0.2-0.25
		c-3.62,0.98-31.45,9.57-38.99,6.88c-8.02-2.86-22.53-19.18-23.29-43.61c-0.76-24.43-12-141.46-37.2-223.16
		c-25.2-81.7-71.77-172.56-62.61-202.34c9.16-29.78,73.3-48.1,133.62-80.93c60.32-32.83,134.38-99.26,123.69-186.3
		c-10.69-87.04-77.12-277.16-67.95-360.77c9.09-82.92,19.86-112.33,47.97-161.97c0.42-0.73,0.31-1.65-0.28-2.25
		c-7.22-7.3-53.36-51.48-110.11-49.38c-61.85,2.29-113.96,33.79-257.12,269.72s-235.36,222.76-310.38,204.44
		c-64.71-15.81-121.32-69.95-135.66-84.54c-1.08-1.1-0.09-2.93,1.42-2.63c18.53,3.66,85.39,15.39,131.37,4.14
		c52.18-12.77,110.82-50.83,125.84-69.84c0.68-0.86,0.33-2.14-0.69-2.55l-6.72-2.75c-2.4-0.98-5.12-0.78-7.37,0.53
		c-16.3,9.51-89.09,47.07-197.54,30.33c-122.43-18.89-222.42-116.33-278.5-253.08c-0.59-1.44,0.93-2.86,2.32-2.15
		c22.05,11.21,129.85,63.53,208.99,56.71c88.57-7.64,188.59-45.81,318.4-151.94s234.41-187.83,395.51-148.89
		c146.34,35.37,219.61,90.91,231.8,100.79c1.15,0.93,2.7,1.17,4.08,0.62c15.47-6.23,108.37-42.57,187.88-50.25
		c87.04-8.4,151.18,0,171.8,0c20.62,0,158.82-13.74,257.31-55.74c98.5-41.99,171.41-92.77,195.08-143.16c0,0-2.48-43.33-1.34-76.54
		c1.15-33.21,3.44-90.48-24.62-112.24c0,0-2.86,69.86,1.15,101.36c0,0-48.1-61.85-83.61-183.25
		c-35.5-121.4-10.31-276.02,96.21-371.08c93.39-83.35,242.25-137.64,277.51-149.75c2.12-0.73,1.91-3.79-0.3-4.21
		c-26.49-5.05-114.46-18.71-194.21,4.64c-1.11,0.33-1.93-1.02-1.12-1.84c15.75-15.89,98.25-88.94,288.05-94.7
		c151.18-4.58,268.27,73.54,300.6,105.65c6.41,6.37,17.03,5.36,22.13-2.1c9.42-13.78,23.74-33.59,35.37-44.75
		C3191.38,540.55,3237.19,512.3,3237.19,512.3z"/>
	<path class="st1" d="M4454.54,2614.62c-5.51,38.66-11.27,77.1-17.23,115.32c-89.1,571.23-227.49,1097.84-411.31,1565.18
		c-189.78,482.51-430.16,907.14-714.48,1262.05c-145.73,181.93-305.42,348.4-474.68,494.8
		c-150.53,130.19-312.01,247.46-481.05,349.38c-169.03-101.92-330.52-219.19-481.05-349.38
		c-169.26-146.4-328.96-312.87-474.68-494.8c-284.31-354.91-524.7-779.54-714.48-1262.05
		c-101.55-258.22-189.23-534.52-262.41-826.46L4454.54,2614.62z"/>
	<path class="st0" d="M3495.83,4675.69c0,408.11-295.62,747.18-684.44,814.7c-73.42,99.56-154.61,106.11-197.61,111.07
		c-44.68,5.17-95.06-4.01-133.44,12.61c-38.36,16.6-64.33,65.08-64.33,65.08l1.55-26.72c-12.22,8.4-39.13,42.39-39.13,42.39
		c-4.03-42.96,26.91-81.9,40.07-108.24c13.18-26.34-27.36-56.13-64.7-33.03c-49.14,30.43-33.21,103.1-68.72,145.46
		c-20.2,24.12-66.04,30.55-66.04,30.55c-17.94,11.84-49.63,19.85-49.63,19.85c-58.05,14.11-131.71,0-131.71,0
		s184.78-96.2,108.43-177.9c-75.07-80.3-176.46-33.56-179.94-31.93c2.75-2.12,73.85-56.74,76.66-119.63
		c2.87-64.15-67.48-100.86-85.04-101.61c-17.57-0.77-29.67,43.2-62.13,58.47c-17.25,8.11-53.71-2.97-53.71-2.97
		s-13,28.64-51.94,32.93c-38.93,4.29-82.17-30.92-82.17-30.92c23.47-17.19,51.09-53.21,56.68-67.59
		c10.52-26.91-25.77-92.95-95.35-72.71c-83.9,24.39-124.55-4.6-124.55-4.6c34.94-22.9,64.72-63.56,27.5-99.64
		c-37.22-36.08-93.35-32.64-163.22-24.63c-69.86,8.03-146.01-81.31-146.01-81.31s95.63-15.46,108.22-73.3
		c12.61-57.82,64.72-57.25,83.61-58.41c18.89-1.14,79.02,1.73,69.29-46.37c-9.74-48.1-89.14-39.62-89.14-39.62
		c22.33-2.85,52.57-32.68,87.42-74.34c28.25-33.78,92.78-29.21,92.78-29.21c63.37-22.9,117.39-95.63,123.68-130.57
		c6.3-34.92-25.57-59.16-51.54-67.77c-19.22-6.37-70.72,14.5-72.12,15.07c0.53-0.85,17.84-28.39,31.18-50.38
		c13.55-22.33,11.17-67.28,36.93-87.33c25.77-20.03,124.27-36.06,130.29-68.7c3.99-21.74-9.09-48.59-31.22-48.41
		c-11.8,0.1-28.76,9.86-64.55,13.18c-38.66,3.58-72.51-45.33-72.51-45.33c53.45,25.28,91.63-44.38,132.87-91.73
		c41.23-47.33,94.68-47.71,94.68-47.71s29.39-20.97,71-21.36c41.61-0.39,69.11,16.01,69.11,16.01
		c22.37-0.55,46.01,10.86,56.72,16.78c150.65-158.4,363.43-257.12,599.28-257.12C3125.6,3848.75,3495.83,4218.97,3495.83,4675.69z"
		/>
	<path class="st1" d="M2306.06,4135.29c-46.93,23.63-108.8,68.05-143.93,123.79c-54.25,86.09-67.57,213.69-78.64,324.41
		c-1.72,17.18,5.61,31.49,14.13,41.23c45.76,52.32,93.79,85.55,169.46,124.33c20.6,10.55,51.76,7.04,69.34-8.02l186.43-159.58
		c6.88-5.42,11.34-13.34,12.39-22.04c4.3-72.63,13.19-143.37,25.66-212.62c1.89-16.39,1.74-42.51-6.68-56.69
		c-42.83-72.16-115.28-120.54-185.92-164.55C2348.35,4113.12,2327.04,4124.72,2306.06,4135.29z"/>
	<path class="st1" d="M2594.58,4244.86c89.47-19.83,170.22-40.7,247.1-65.7c12.68-4.12,23.19-13.07,29.43-24.85
		c30.6-57.8,56.5-117.94,64.31-176.45c1.39-10.43-1.78-21.36-9.6-28.4c-95.6-85.99-247.03-89.79-419.17-57.95
		c-18.94,3.5-36.46,12.39-50.47,25.61c-34.1,32.17-90.32,97.31-76.07,161.66c10.02,45.24,154.98,134.16,190.12,159.29
		C2577.11,4243,2588.77,4246.43,2594.58,4244.86z"/>
	<path class="st1" d="M2965.74,3999.8c-28.49,65.23-47.2,108.94-59.75,155.42c-6.08,22.52-9.63,48.53,0.4,69.59
		c41.66,87.43,86.6,157.97,137.1,239.01c4.41,7.08,10.73,12.77,18.22,16.46c76.04,37.42,164.12,66.29,254.83,86.25
		c10.49,2.31,20.64-4.37,25.92-13.72c21.52-38.12,41.33-79.08,51.43-130.13c6.12-30.92,1.88-63.05-11.63-91.54
		c-84.52-178.13-203.69-315.5-371.43-354.05C2992.3,3972.83,2973.35,3982.38,2965.74,3999.8z"/>
	<path class="st1" d="M2854.66,4707.56c53.88-69.92,100.02-134,182.86-178.75c6.21-3.35,16.89-4.95,23.8-3.51
		c92.11,19.18,178.77,50.61,256.57,90.93c4.5,2.33,7.68,6.62,8.59,11.61c10.09,55.06,15.88,114.15,18.91,175.84
		c1.27,25.88-3.95,51.78-15.97,74.74c-40.28,76.9-143.76,174.28-199.39,222.19c-9.42,8.11-21.37,12.68-33.78,11.98
		c-65.52-3.67-146.17-28.67-225.62-61.14c-7.15-2.92-11.98-9.7-12.32-17.42l-13.16-295.21
		C2844.47,4727.59,2847.8,4716.46,2854.66,4707.56z"/>
	<path class="st1" d="M3035.81,5331.75c22.15-65.84,55.27-129.16,96.21-190.69l247.62-254.39c8.69-8.92,24.4-14.05,36.41-10.75
		c16.75,4.59,26.53,26.92,5.15,87.05c-36.65,103.08-109.95,200.43-166.07,258.84C3199.02,5280.21,3090.78,5389.02,3035.81,5331.75z"
		/>
	<path class="st1" d="M2663.78,5463.08c0,0,87.04-48.1,155.76-61.08c68.72-12.98,180-22.52,189.55-8.78
		C3023.11,5413.41,2728.68,5499.73,2663.78,5463.08z"/>
	<path class="st1" d="M2352.62,4757.15c64.01-53.96,123.24-97.6,177.85-126.9c19.23-10.32,41.82-12.58,62.55-5.77
		c74.26,24.4,147.94,62.49,213.11,100.96c4.06,2.4,6.72,6.57,7.26,11.25c8.76,76.53,10.52,177.49,11.95,291.04
		c0.21,16.66-6.74,32.08-17.08,45.15c-47.61,60.16-117.01,98.05-195.64,130.59c-84.73-12.32-168.25-44.82-245.86-94.5
		c-29.33-18.77-50.3-48.23-58.69-82.03c-15.15-61.01-19.4-128.98-1.7-196.43C2312.72,4806.32,2333.5,4773.28,2352.62,4757.15z"/>
	<path class="st1" d="M2154.69,5183.63c17.37-14.12,89.52-63.76,147.1-68.84c3.82-0.34,14.75,0.34,18.21,2.01l267.42,129.06
		c43.38,32.74,68.48,79.15,79.88,132c6.15,28.5-3.53,53.54-36.9,60.42l-46.37,13.39c-21.56,6.23-44.3,7.47-66.36,3.32
		c-105.45-19.84-202.76-65.34-304.21-130.33c-8.97-5.75-20.56-18.09-25.65-27.46c-17.02-31.39-31.04-64.69-36.24-103.78
		C2151.22,5190.67,2152.55,5185.37,2154.69,5183.63z"/>
	<path class="st1" d="M1939.18,4885.08c0,0,53.83,137.73,106.9,211.5c53.83,74.83,77.5,94.3,80.93,110.9
		c3.44,16.61,3.15,43.24,3.15,43.24s-160.99-164.61-198.93-302.03C1927.69,4935.88,1913.98,4898.06,1939.18,4885.08z"/>
	<path class="st1" d="M2101.49,4297.34c-31.46,101.08-48.47,211.86-49.93,335.46c-0.19,16.35-4.87,32.35-13.68,46.13
		c-32.72,51.18-58.8,99.48-84.21,154.12c-8.72,18.75-35.37,19.73-44.96,1.41c-32.54-62.1-31.75-204.79-1.03-337.63
		c13.58-58.71,45.78-150.55,87.98-237.76c4.77-9.85,13.12-17.66,23.49-21.16c36.65-12.37,66.14,3.7,82.18,49.88
		C2102.41,4290.86,2102.46,4294.22,2101.49,4297.34z"/>
	<g>
		<polygon class="st0" points="1508.4,3359.72 1508.39,3359.72 1508.39,3360.88 1507.14,3359.85 1341.57,3394.51 1336.72,3400.6 
			1342.58,3703.99 1200.33,3428.63 1193.66,3425.46 1027.83,3460.17 1022.99,3465.76 1003.39,3775.34 887.09,3494.7 880.21,3491.07 
			713.77,3525.9 709.46,3534.39 954.31,4075.06 961.12,4078.51 1132.95,4042.55 1137.79,4036.97 1160.73,3681.1 1324.82,3997.83 
			1331.49,4001 1503.32,3965.04 1508.17,3959.13 1514.49,3365.89 1508.4,3360.89 		"/>
		<polygon class="st0" points="1767.25,3732.59 1598.98,3767.81 1594.26,3775.03 1627.29,3932.85 1634.51,3937.58 1802.78,3902.36 
			1807.5,3895.14 1774.47,3737.32 		"/>
		<polygon class="st0" points="2523.41,3147.28 2523.4,3147.28 2523.4,3148.44 2522.15,3147.41 2356.58,3182.07 2351.73,3188.16 
			2357.59,3491.55 2215.35,3216.2 2208.68,3213.02 2042.84,3247.73 2038,3253.32 2018.41,3562.9 1902.11,3282.26 1895.22,3278.63 
			1728.79,3313.46 1724.48,3321.95 1969.33,3862.62 1976.13,3866.08 2147.97,3830.11 2152.81,3824.53 2175.74,3468.66 
			2339.83,3785.39 2346.5,3788.56 2518.33,3752.6 2523.18,3746.69 2529.5,3153.45 2523.41,3148.45 		"/>
		<polygon class="st0" points="2782.26,3520.16 2614,3555.37 2609.27,3562.6 2642.31,3720.42 2649.53,3725.14 2817.79,3689.92 
			2822.52,3682.7 2789.48,3524.88 		"/>
		<polygon class="st0" points="3244.93,3226.69 3031.18,3271.42 3012.96,3184.34 3264.22,3131.75 3268.94,3124.53 3243.44,3002.68 
			3236.22,2997.96 2802.98,3088.64 2798.26,3095.86 2916.95,3662.93 2924.17,3667.66 3100.17,3630.82 3104.89,3623.6 
			3057.65,3397.87 3271.39,3353.13 3276.11,3345.91 3252.15,3231.41 		"/>
		<polygon class="st0" points="3453.39,3379.69 3285.13,3414.91 3280.41,3422.13 3313.44,3579.95 3320.66,3584.67 3488.92,3549.46 
			3493.65,3542.23 3460.61,3384.41 		"/>
		<path class="st0" d="M4086.05,3218.47l-163.28-14.28l-6.63,6.04c-0.22,36.2-6.72,65.39-19.32,86.76
			c-12.24,20.77-34.48,34.66-66.09,41.27c-8.96,1.88-17.65,2.83-25.82,2.83c-21.5,0-40.64-6.64-56.88-19.73
			c-22.72-18.31-40.73-58.6-53.53-119.75c-10.32-49.29-10.22-87.35,0.29-113.12c13.8-34.71,38.93-55.41,76.86-63.35
			c7.67-1.61,15.25-2.42,22.52-2.42c8.37,0,16.61,1.08,24.48,3.21c14.68,3.98,28.13,11.41,39.96,22.06
			c7.09,6.3,15.06,17.32,23.71,32.79l7.84,2.58l147.52-66.81l2.76-8.63c-32.9-56.56-73.88-95.76-121.8-116.53
			c-27.68-11.99-59.9-18.07-95.75-18.07c-26.17,0-54.92,3.24-85.45,9.63c-92.51,19.36-159.75,60.6-199.84,122.56
			c-20.09,31.04-32.82,66.76-37.84,106.15c-4.99,39.15-2.5,83.01,7.41,130.36c14.9,71.18,41.94,127.45,80.38,167.27
			c38.46,39.84,80.17,65.09,123.97,75.05c18.77,4.27,39.57,6.43,61.81,6.43c29.3,0,62.09-3.75,97.46-11.16
			c51.41-10.76,92.88-27.36,123.24-49.35c30.49-22.08,54.32-50.66,70.82-84.95c16.43-34.14,25.43-74.71,26.75-120.59
			L4086.05,3218.47z"/>
	</g>
</g>
</svg>
